<svg id="Layer_1" data-name="Layer 1" xmlns="http://www.w3.org/2000/svg" viewBox="0 0 1500 1500">
  <defs>
    <style>
      .cls-1 {
        fill: #fff;
      }
    </style>
  </defs>
  <title>Artboard 1@1x</title>
  <g>
    <g>
      <path class="cls-1" d="M979.39,311.91,967.67,303C969.74,300.45,1134,80.14,1134,80.14L1145.87,89C1144.22,91.22,980,311,979.35,311.91"/>
      <rect class="cls-1" x="926.55" y="242.42" width="97.56" height="14.8" transform="translate(251.25 949.38) rotate(-58.38)"/>
      <rect class="cls-1" x="890.1" y="214.11" width="124.95" height="14.8" transform="translate(329.83 975.6) rotate(-63.54)"/>
      <rect class="cls-1" x="853.61" y="192.62" width="141.29" height="14.8" transform="translate(401.89 988.3) rotate(-68.68)"/>
      <rect class="cls-1" x="800.66" y="154.92" width="196.47" height="14.8" transform="translate(492.39 980.31) rotate(-73.81)"/>
      <rect class="cls-1" x="788.58" y="175.64" width="136.2" height="14.8" transform="translate(512.84 988.76) rotate(-78.95)"/>
      <rect class="cls-1" x="759.33" y="176.13" width="124.92" height="14.8" transform="translate(554.49 982) rotate(-84.08)"/>
      <rect class="cls-1" x="741.02" y="190.24" width="92.65" height="14.8" transform="matrix(0.01, -1, 1, 0.01, 579.14, 982.26)"/>
      <rect class="cls-1" x="745.31" y="105.12" width="14.8" height="139.98" transform="translate(-11.17 58) rotate(-4.38)"/>
      <rect class="cls-1" x="713.31" y="140.88" width="14.8" height="108.09" transform="translate(-22.33 122.01) rotate(-9.53)"/>
      <rect class="cls-1" x="682.11" y="159.97" width="14.8" height="95.8" transform="translate(-30.17 181.39) rotate(-14.67)"/>
      <rect class="cls-1" x="644.76" y="136.05" width="14.8" height="130.55" transform="translate(-29.64 232.93) rotate(-19.81)"/>
      <rect class="cls-1" x="626.84" y="212.35" width="14.8" height="64.22" transform="translate(-43.92 290.47) rotate(-24.96)"/>
      <rect class="cls-1" x="594.41" y="210.39" width="14.8" height="82.06" transform="translate(-44.95 335.6) rotate(-30.09)"/>
      <rect class="cls-1" x="583.59" y="279.4" width="14.8" height="25.19" transform="translate(-60.18 394.51) rotate(-35.24)"/>
      <rect class="cls-1" x="527.25" y="208.48" width="14.8" height="126.45" transform="translate(-48.65 411.1) rotate(-40.38)"/>
      <rect class="cls-1" x="510.49" y="251.73" width="14.8" height="103" transform="translate(-61.3 460.38) rotate(-45.53)"/>
      <rect class="cls-1" x="472.18" y="242.5" width="14.8" height="144.61" transform="translate(-67.88 486.24) rotate(-50.67)"/>
      <rect class="cls-1" x="459.38" y="286.24" width="14.8" height="124.71" transform="translate(-83.87 538.82) rotate(-55.81)"/>
      <rect class="cls-1" x="398.74" y="242.87" width="14.8" height="222.36" transform="translate(-100.58 537.18) rotate(-60.95)"/>
      <rect class="cls-1" x="447.31" y="378.55" width="14.8" height="78.33" transform="translate(-111.4 664.2) rotate(-66.1)"/>
      <rect class="cls-1" x="379.9" y="330.74" width="14.8" height="196.03" transform="translate(-143.24 657.59) rotate(-71.24)"/>
      <rect class="cls-1" x="358.68" y="353.01" width="14.8" height="218.24" transform="translate(-169.26 709.1) rotate(-76.38)"/>
      <rect class="cls-1" x="418.18" y="466.95" width="14.82" height="87.45" transform="translate(-143.07 854.96) rotate(-81.38)"/>
      <rect class="cls-1" x="377.12" y="460.5" width="14.8" height="158.52" transform="translate(-176.66 892.27) rotate(-86.67)"/>
      <rect class="cls-1" x="342.5" y="567.5" width="120.83" height="14.8" transform="translate(-17.96 13.01) rotate(-1.81)"/>
      <rect class="cls-1" x="311.48" y="603.55" width="154.51" height="14.8" transform="translate(-71.07 51.53) rotate(-6.95)"/>
      <rect class="cls-1" x="377.71" y="632.21" width="93.52" height="14.8" transform="translate(-124.64 103.19) rotate(-12.1)"/>
      <rect class="cls-1" x="442.28" y="655.46" width="35.93" height="14.8" transform="translate(-175.78 166.19) rotate(-17.24)"/>
      <rect class="cls-1" x="378.86" y="698.44" width="112.51" height="14.8" transform="translate(-236.06 218.95) rotate(-22.39)"/>
      <rect class="cls-1" x="376.53" y="733.07" width="130.01" height="14.8" transform="translate(-292.34 288.05) rotate(-27.54)"/>
      <rect class="cls-1" x="371.15" y="767.49" width="153.51" height="14.78" transform="translate(-347.88 365.28) rotate(-32.74)"/>
      <rect class="cls-1" x="404.59" y="794.21" width="140.16" height="14.8" transform="translate(-391.83 459.44) rotate(-37.82)"/>
      <rect class="cls-1" x="433.93" y="818.1" width="132.42" height="14.8" transform="translate(-428.44 562.21) rotate(-42.96)"/>
      <rect class="cls-1" x="455.05" y="844.02" width="136.62" height="14.8" transform="translate(-459.84 672.19) rotate(-48.09)"/>
      <rect class="cls-1" x="491.81" y="861.17" width="124.29" height="14.8" transform="translate(-473.41 792.38) rotate(-53.23)"/>
      <rect class="cls-1" x="566.76" y="854.26" width="63.06" height="14.8" transform="translate(-449.11 919.56) rotate(-58.39)"/>
      <rect class="cls-1" x="520.41" y="915.38" width="165.25" height="14.8" transform="translate(-491.8 1051.29) rotate(-63.53)"/>
      <rect class="cls-1" x="582.32" y="910.19" width="122.79" height="14.8" transform="translate(-445.17 1183.44) rotate(-68.67)"/>
      <rect class="cls-1" x="643" y="899.9" width="78.45" height="14.8" transform="translate(-379.38 1309.31) rotate(-73.8)"/>
      <rect class="cls-1" x="653.9" y="924.37" width="112.68" height="14.8" transform="translate(-340.38 1450.25) rotate(-78.95)"/>
      <rect class="cls-1" x="686.17" y="930.28" width="114.59" height="14.8" transform="translate(-265.9 1580.47) rotate(-84.08)"/>
      <rect class="cls-1" x="738.12" y="913.98" width="78.38" height="14.8" transform="matrix(0.01, -1, 1, 0.01, -154.43, 1686.24)"/>
      <rect class="cls-1" x="803.8" y="881.23" width="14.8" height="123.4" transform="translate(-69.64 64.71) rotate(-4.38)"/>
      <rect class="cls-1" x="840.14" y="876.8" width="14.8" height="151.53" transform="translate(-146.01 153.47) rotate(-9.53)"/>
      <rect class="cls-1" x="880.7" y="874.78" width="14.82" height="206.11" transform="translate(-215.94 252.6) rotate(-14.45)"/>
      <rect class="cls-1" x="898.4" y="860.86" width="14.8" height="91.55" transform="translate(-253.66 360.63) rotate(-19.81)"/>
      <rect class="cls-1" x="935.58" y="846.88" width="14.8" height="124.18" transform="translate(-295.43 482.6) rotate(-24.95)"/>
      <rect class="cls-1" x="995.93" y="822.88" width="14.8" height="243.65" transform="matrix(0.87, -0.5, 0.5, 0.87, -338.48, 630.57)"/>
      <rect class="cls-1" x="998.4" y="811.42" width="14.8" height="136.8" transform="translate(-323.33 741.58) rotate(-35.24)"/>
      <polygon class="cls-1" points="991.09 820.38 983.33 811.15 994.61 801.57 1002.37 810.8 991.09 820.38"/>
      <rect class="cls-1" x="1048.87" y="767.29" width="14.8" height="129.87" transform="translate(-277.58 1003) rotate(-45.53)"/>
      <rect class="cls-1" x="1060.76" y="747.06" width="14.8" height="101.01" transform="translate(-225.75 1118.31) rotate(-50.67)"/>
      <rect class="cls-1" x="1089.39" y="715.93" width="14.8" height="122.16" transform="translate(-162.27 1247.61) rotate(-55.81)"/>
      <rect class="cls-1" x="1093.71" y="694.63" width="14.8" height="91.29" transform="translate(-80.6 1343.61) rotate(-60.96)"/>
      <rect class="cls-1" x="1145.35" y="641.33" width="14.8" height="172.21" transform="translate(20.66 1486.63) rotate(-66.1)"/>
      <rect class="cls-1" x="1096.33" y="652.06" width="14.8" height="40.71" transform="translate(112.22 1501.43) rotate(-71.25)"/>
      <path class="cls-1" d="M1240.52,681.9s-145.5-35.3-149.79-36.38l3.5-14.29L1244,667.51Z"/>
      <rect class="cls-1" x="1150.9" y="558.21" width="14.8" height="122.1" transform="translate(375.19 1673.71) rotate(-81.53)"/>
      <rect class="cls-1" x="1145.51" y="532.67" width="14.8" height="104.25" transform="translate(502.13 1701.79) rotate(-86.67)"/>
      <rect class="cls-1" x="1101.3" y="544.61" width="77.54" height="14.8" transform="translate(-16.87 36.28) rotate(-1.81)"/>
      <rect class="cls-1" x="1098.93" y="513.16" width="67.26" height="14.8" transform="translate(-54.67 140.87) rotate(-6.95)"/>
      <rect class="cls-1" x="1093.34" y="478.77" width="98.01" height="14.8" transform="translate(-76.49 250.04) rotate(-12.09)"/>
      <rect class="cls-1" x="1086.16" y="454.39" width="46.33" height="14.8" transform="translate(-87.04 349.73) rotate(-17.25)"/>
      <rect class="cls-1" x="1075" y="421.58" width="66.86" height="14.8" transform="translate(-79.85 454.34) rotate(-22.38)"/>
      <rect class="cls-1" x="1056.83" y="373.19" width="152.06" height="14.8" transform="translate(-47.64 566.72) rotate(-27.53)"/>
      <rect class="cls-1" x="1035.71" y="331.1" width="194.4" height="14.8" transform="translate(-3.49 665.1) rotate(-32.67)"/>
      <rect class="cls-1" x="1029.9" y="346.48" width="44.27" height="14.8" transform="translate(4 719.43) rotate(-37.82)"/>
      <path class="cls-1" d="M1021.1,351.12l-10-10.94c2.37-2.16,24.64-22.89,24.64-22.89l10.08,10.83-24.64,23"/>
      <rect class="cls-1" x="953.96" y="224.92" width="250.74" height="14.8" transform="translate(185.6 880.53) rotate(-48.1)"/>
    </g>
    <g>
      <path class="cls-1" d="M768.58,572.17q-9.24-10.47-28.53-15.09a76.73,76.73,0,0,0,15.11-7.55,50.38,50.38,0,0,0,10.35-9.8,40.3,40.3,0,0,0,7.82-24.05,55.16,55.16,0,0,0-4.19-21.82A40.7,40.7,0,0,0,756,477.07c-5.88-4.47-13.71-8.1-23.22-10.62s-20.95-3.69-34.4-3.69H626.49V658.33h78c11.74,0,22.09-1.41,31.32-4.48a69.36,69.36,0,0,0,22.94-12.59,51.6,51.6,0,0,0,14.27-18.74,49.36,49.36,0,0,0,4.74-23.21C777.8,588.12,774.74,579.17,768.58,572.17Zm-96.5-75.23h26.53a85.18,85.18,0,0,1,13.15,1.12,17.56,17.56,0,0,1,14.55,11.47A36.2,36.2,0,0,1,728,521.27,28.29,28.29,0,0,1,725.75,533a16.33,16.33,0,0,1-6.44,7.29A34.6,34.6,0,0,1,709,544a88.77,88.77,0,0,1-13.42,1.4H672.08ZM732.21,607.7a19.33,19.33,0,0,1-4.47,8.12,20.78,20.78,0,0,1-8.94,5.86A44.23,44.23,0,0,1,704,623.92H672.08v-48.7h31.61A49.79,49.79,0,0,1,718,576.89a24.62,24.62,0,0,1,9,4.49,18.92,18.92,0,0,1,5,7.28,35.94,35.94,0,0,1,1.39,9.78,34.44,34.44,0,0,1-1.17,9.26Z"/>
      <polygon class="cls-1" points="928.57 497.49 928.57 462.82 802.71 462.82 802.71 658.33 928.57 658.33 928.57 623.36 848.3 623.36 848.3 576.66 909.83 576.66 909.83 543.09 848.3 543.09 848.3 497.49 928.57 497.49"/>
    </g>
  </g>
  <g>
    <g>
      <g>
        <path class="cls-1" d="M53,1312.88c-26.9,0-44.89-19.1-44.89-44.1s18-44.1,44.89-44.1,44.74,19.28,44.74,44.1S79.94,1312.88,53,1312.88Zm0-71.64c-15.44,0-24.35,10.36-24.35,27.54s9.07,27.54,24.35,27.54,24.2-10.17,24.2-27.54S68.32,1241.24,53,1241.24Z"/>
        <path class="cls-1" d="M153.33,1283.11v28.82H133.27v-86.25h30.41c24.2,0,34.71,12.32,34.71,28.18,0,17.25-10.83,29.29-34.71,29.29Zm0-15.11h10.35c10.35,0,14.65-5.27,14.65-14.17,0-7.8-4.62-13.23-14.65-13.23H153.33Z"/>
        <path class="cls-1" d="M290.57,1225.65v15.43H255.21v20.06h27.11v14.79H255.21v20.53h35.36v15.45H235v-86.25Z"/>
        <path class="cls-1" d="M349.62,1228.66l40.92,51.76c-.32-3.34-.48-6.52-.48-9.23V1225.5h17.67v86.25H397.38a7.75,7.75,0,0,1-7-3.35L349.72,1257c.16,3,.48,5.89.48,8.44v46.17H332.66v-86.25h10.49C346.44,1225.65,347.55,1226.13,349.62,1228.66Z"/>
      </g>
      <g>
        <path class="cls-1" d="M530.58,1259.07h3.18c3,0,5.1-1,6.37-2.71l19.42-28.09c2.07-3,4.62-4,8.62-4h17.37L560,1259.07a17.76,17.76,0,0,1-5.89,5.25,14,14,0,0,1,7.48,6.16l26.1,40.06H569.9c-4.61,0-6.16-1.23-7.8-3.69l-19.58-30.09c-1.43-2.23-3.34-3-7.16-3h-4.78v36.79h-19.9v-86.26h20.06v34.82Z"/>
        <path class="cls-1" d="M643,1227.28,683.89,1279c-.32-3.36-.47-6.54-.47-9.25v-45.68h17.66v86.25H690.73a7.77,7.77,0,0,1-7-3.34l-40.56-51.41c.16,3,.47,5.89.47,8.44v46.17H625.91V1224h10.51C639.79,1224.25,640.7,1224.73,643,1227.28Z"/>
        <path class="cls-1" d="M784.19,1311.49c-26.9,0-44.89-19.1-44.89-44.1s18-44.09,44.89-44.09,44.74,19.26,44.74,44.09S810.94,1311.49,784.19,1311.49Zm0-71.64c-15.44,0-24.36,10.35-24.36,27.54s9.08,27.55,24.36,27.55,24.2-10.19,24.2-27.55S799.48,1239.85,784.19,1239.85Z"/>
        <path class="cls-1" d="M850.9,1224.25h16.87c3.51,0,5.89,1.75,6.69,4.3l11.78,45a72,72,0,0,1,2.07,9.86,94,94,0,0,1,2.71-9.86l14-45a6.64,6.64,0,0,1,6.51-4.3h5.91c3.5,0,5.73,1.59,6.68,4.3l13.85,45a62.47,62.47,0,0,1,2.55,9.4,92.2,92.2,0,0,1,2.07-9.4l11.78-45c.64-2.39,3.17-4.3,6.53-4.3h15.76l-26.6,86.26H931.93L915.68,1257c-.46-1.61-1.1-3.7-1.74-5.89a43.27,43.27,0,0,1-1.75,5.89l-16.43,53.52H877.64Z"/>
        <path class="cls-1" d="M1032.53,1294.46h32v15.92h-52.09v-86.25h20Z"/>
        <path class="cls-1" d="M1162.61,1224.25v15.44h-35.34v20.06h27.11v14.79h-27.11v20.54h35.34v15.44h-55.56v-86.25Z"/>
        <path class="cls-1" d="M1238.07,1310.54h-33.43v-86.25h33.43c26.75,0,44.74,18.31,44.74,43.13S1265,1310.54,1238.07,1310.54Zm0-70.85h-13.32v55.45h13.37c15.29,0,24.2-10.51,24.2-27.71S1253.36,1239.69,1238.07,1239.69Z"/>
        <path class="cls-1" d="M1372.61,1293.5v-13H1364c-2.55,0-4-1.43-4-3.5v-11h30.73v36.46c-8.76,6.53-19,9.23-33.12,9.23-25.15,0-44.1-18.78-44.1-44.1,0-25.79,17.84-44.1,45.59-44.1,14.48,0,25.15,4.93,32.16,11.63l-5.74,8.75a5.64,5.64,0,0,1-4.45,2.71,8.62,8.62,0,0,1-3.7-1.12c-6.36-3.82-10.82-5.41-18.78-5.41-15,0-24.36,11-24.36,27.54,0,18.31,10.67,28.66,25.15,28.66A35.9,35.9,0,0,0,1372.61,1293.5Z"/>
        <path class="cls-1" d="M1486.75,1224.25v15.44H1451.4v20.06h27.11v14.79H1451.4v20.54h35.35v15.44h-55.56v-86.25Z"/>
      </g>
    </g>
    <g>
      <path class="cls-1" d="M388.76,1456.76v-84.84h27.11a48.38,48.38,0,0,1,13.55,1.59,26.1,26.1,0,0,1,9.23,4.46,16.75,16.75,0,0,1,5.42,7,24.75,24.75,0,0,1,1.75,9.24,19.14,19.14,0,0,1-1,6,16.86,16.86,0,0,1-3,5.41,23,23,0,0,1-4.93,4.46,29.3,29.3,0,0,1-7,3.18c6.16,1.23,10.82,3.5,14,6.69a17.22,17.22,0,0,1,4.77,12.73,24.49,24.49,0,0,1-1.91,9.85,19.33,19.33,0,0,1-5.73,7.65,27.47,27.47,0,0,1-9.39,4.93,43.15,43.15,0,0,1-12.58,1.75H388.76Zm11.46-47h15.13a27.41,27.41,0,0,0,8.44-1.12,19,19,0,0,0,5.89-3,12.42,12.42,0,0,0,3.5-4.62,14.36,14.36,0,0,0,1.11-5.89c0-4.93-1.43-8.63-4.45-11s-7.65-3.51-14-3.51H400.22Zm0,8.28v29.51h18.31a26.53,26.53,0,0,0,8.44-1.12,14.28,14.28,0,0,0,5.73-3.18,12,12,0,0,0,3.35-4.78,20,20,0,0,0,1.11-6.16,12.75,12.75,0,0,0-4.62-10.35c-3-2.56-7.8-3.82-14-3.82Z"/>
      <path class="cls-1" d="M553.06,1371.92v9.39H512.3v28.18h33v9.06h-33v29h40.76V1457H500.84v-84.85h52.22Z"/>
      <path class="cls-1" d="M616.73,1447.06h36.78v9.7H605.28v-84.84h11.45Z"/>
      <path class="cls-1" d="M739.27,1448.34c2.23,0,4.46-.16,6.37-.32a30.07,30.07,0,0,0,5.41-1,36.19,36.19,0,0,0,4.78-1.59c1.43-.65,3-1.24,4.45-2.07v-18.8H747.12a2.19,2.19,0,0,1-1.75-.62,2.08,2.08,0,0,1-.64-1.59v-6.53h26.11v32.62a34,34,0,0,1-6.69,4,49,49,0,0,1-7.32,2.87,59.37,59.37,0,0,1-8.44,1.75,90,90,0,0,1-9.71.65,44.34,44.34,0,0,1-16.87-3.2,38.06,38.06,0,0,1-13.22-8.9,41.71,41.71,0,0,1-8.62-13.69,51.29,51.29,0,0,1-.16-35.19,39.63,39.63,0,0,1,8.75-13.69,40.5,40.5,0,0,1,13.69-8.91,49.5,49.5,0,0,1,18-3.19,55.92,55.92,0,0,1,9.4.8,52.32,52.32,0,0,1,8,2.07,39,39,0,0,1,6.84,3.34,51.76,51.76,0,0,1,5.89,4.46l-3.18,5.25a2.9,2.9,0,0,1-2.55,1.59,3.87,3.87,0,0,1-2.07-.63c-.95-.48-2.07-1.24-3.34-2.07a23,23,0,0,0-4.46-2.23c-1.75-.64-3.82-1.24-6.17-1.91a38.93,38.93,0,0,0-21.32,1.59,27.53,27.53,0,0,0-16.08,17.25,41.88,41.88,0,0,0-2.23,13.86,43.58,43.58,0,0,0,2.23,14.32,32,32,0,0,0,6.37,10.67,28.39,28.39,0,0,0,9.85,6.69A27.66,27.66,0,0,0,739.27,1448.34Z"/>
      <path class="cls-1" d="M837.55,1456.76H826.08v-84.84h11.47Z"/>
      <path class="cls-1" d="M928.93,1447.6a25,25,0,0,0,9.39-1.75,20.06,20.06,0,0,0,7-4.93,22.52,22.52,0,0,0,4.46-7.64,27.61,27.61,0,0,0,1.43-9.71V1372h11.46v51.58a38.52,38.52,0,0,1-2.39,13.69,32.89,32.89,0,0,1-6.68,10.83,30.05,30.05,0,0,1-10.67,7.16,36.31,36.31,0,0,1-14.17,2.55,36.93,36.93,0,0,1-14.17-2.55,29.93,29.93,0,0,1-10.66-7.16,32.75,32.75,0,0,1-6.69-10.83,38.08,38.08,0,0,1-2.39-13.69V1372h11.46v51.58a31.05,31.05,0,0,0,1.44,9.71,19.2,19.2,0,0,0,4.45,7.64,21.79,21.79,0,0,0,7,4.93A26,26,0,0,0,928.93,1447.6Z"/>
      <path class="cls-1" d="M1061.07,1429.11c.48,1.13.8,2.07,1.23,3.2a20.32,20.32,0,0,1,1.23-3.2c.47-.94,1-2.07,1.43-3l28.66-52.22a3,3,0,0,1,1.59-1.59,7.75,7.75,0,0,1,2.39-.32H1106v84.84h-10v-65.15c0-1,.16-1.91.16-2.87l-29.13,53a4.63,4.63,0,0,1-4.14,2.7h-1.59a4.65,4.65,0,0,1-4.14-2.7l-29.77-53.18c.16,1,.16,2.07.32,3a16.34,16.34,0,0,1,.16,2.71v62.4h-10v-84.85h8.53a9.62,9.62,0,0,1,2.39.32,3.7,3.7,0,0,1,1.59,1.59l29.3,52.22C1060.11,1427,1060.59,1428,1061.07,1429.11Z"/>
    </g>
  </g>
</svg>
