<?xml version="1.0" encoding="utf-8"?>
<!-- Generator: Adobe Illustrator 19.0.0, SVG Export Plug-In . SVG Version: 6.00 Build 0)  -->
<svg version="1.1" id="Layer_1" xmlns="http://www.w3.org/2000/svg" xmlns:xlink="http://www.w3.org/1999/xlink" x="0px" y="0px"
	 viewBox="0 0 96 96" style="enable-background:new 0 0 96 96;" xml:space="preserve">
<style type="text/css">
	.st0{fill:#333333;}
</style>
<g id="XMLID_2_">
	<path id="XMLID_8_" class="st0" d="M48,43.7c5.3,0,10.2-0.5,14.8-1.4c4.6-1,8.2-2.4,10.9-4.3v5.7c0,1.5-1.1,3-3.4,4.3
		s-5.4,2.4-9.4,3.1s-8.2,1.2-12.9,1.2s-8.9-0.4-12.9-1.2S28,49.3,25.7,48s-3.4-2.7-3.4-4.3V38c2.7,1.9,6.3,3.3,10.9,4.3
		C37.8,43.2,42.7,43.7,48,43.7z M48,69.4c5.3,0,10.2-0.5,14.8-1.4c4.6-1,8.2-2.4,10.9-4.3v5.7c0,1.5-1.1,3-3.4,4.3s-5.4,2.4-9.4,3.1
		S52.6,78,48,78s-8.9-0.4-12.9-1.2S28,75,25.7,73.7s-3.4-2.7-3.4-4.3v-5.7c2.7,1.9,6.3,3.3,10.9,4.3C37.8,68.9,42.7,69.4,48,69.4z
		 M48,56.6c5.3,0,10.2-0.5,14.8-1.4s8.2-2.4,10.9-4.3v5.7c0,1.5-1.1,3-3.4,4.3s-5.4,2.4-9.4,3.1c-4,0.8-8.2,1.2-12.9,1.2
		s-8.9-0.4-12.9-1.2c-4-0.8-7.1-1.8-9.4-3.1s-3.4-2.7-3.4-4.3v-5.7c2.7,1.9,6.3,3.3,10.9,4.3S42.7,56.6,48,56.6z M48,18
		c4.6,0,8.9,0.4,12.9,1.2c4,0.8,7.1,1.8,9.4,3.1c2.3,1.3,3.4,2.7,3.4,4.3v4.3c0,1.5-1.1,3-3.4,4.3c-2.3,1.3-5.4,2.4-9.4,3.1
		s-8.2,1.2-12.9,1.2s-8.9-0.4-12.9-1.2s-7.1-1.8-9.4-3.1c-2.3-1.3-3.4-2.7-3.4-4.3v-4.3c0-1.5,1.1-3,3.4-4.3
		c2.3-1.3,5.4-2.4,9.4-3.1C39.1,18.4,43.4,18,48,18z"/>
</g>
</svg>
